<?xml version="1.0" encoding="UTF-8"?>
<svg width="606" height="600" version="1.1" viewBox="0 0 160 159" xmlns="http://www.w3.org/2000/svg" xmlns:cc="http://creativecommons.org/ns#" xmlns:dc="http://purl.org/dc/elements/1.1/" xmlns:rdf="http://www.w3.org/1999/02/22-rdf-syntax-ns#" xmlns:xlink="http://www.w3.org/1999/xlink">
 <metadata>
  <rdf:RDF>
   <cc:Work rdf:about="">
    <dc:format>image/svg+xml</dc:format>
    <dc:type rdf:resource="http://purl.org/dc/dcmitype/StillImage"/>
    <dc:title/>
   </cc:Work>
  </rdf:RDF>
 </metadata>
 <g transform="translate(141,83)">
  <g transform="matrix(.264 0 0 .264 -222 -163)">
   <g stroke-width="2.3">
    <g>
     <g stroke="#000">
      <path d="m507 207c-179 2-259 135-259 295" fill="none" stroke-linecap="round"/>
      <path d="m812 205c179 2 259 135 259 295" fill="none" stroke-linecap="round"/>
     </g>
     <path d="m814 206c-84 10-153 10-222-1-31-4-39 18-38 34 2 21 16 35 40 37 98 12 196 12 295 0 24-2 38-16 40-37 1-16-7-38-38-34z" fill="#fff" stroke="#000"/>
     <path d="m814 206c-84 10-153 10-222-1-31-4-39 18-38 34" fill="none" stroke="#000"/>
     <path d="m516 498s23 18 36 29c13 10 32 19 32 19" fill="none" stroke="#000" stroke-linecap="round"/>
     <path d="m1096 498s-23 18-36 29c-13 10-32 19-32 19" fill="none" stroke="#000" stroke-linecap="round"/>
    </g>
    <path d="m546 510c-3 1-32 30-10 65 24 37 71 58 121 58h2c1 0 1 0 2 0 50 0 97-21 121-58 22-35-7-64-10-65-2-1-2-1-2-1h-222c-1 0-1 0-2 1z" fill="#fff" stroke="#000"/>
    <path d="m556 261c-38 32-38 97-38 97" fill="none" stroke="#000"/>
    <path d="m557 261c-30 63-12 90 0 97" fill="none" stroke="#000"/>
    <path d="m557 261c-22 56-11 79 3 95" fill="none" stroke="#000"/>
    <path d="m557 261c-14 43-6 63 6 81" fill="none" stroke="#000"/>
    <path d="m558 261c-8 32-3 51 8 68" fill="none" stroke="#000"/>
    <path d="m558 261c-2 21 0 38 10 54" fill="none" stroke="#000"/>
    <path d="m559 261c2 14 5 28 12 40" fill="none" stroke="#000"/>
    <path d="m559 261c4 9 7 18 13 27" fill="none" stroke="#000"/>
    <path d="m560 261c20 54 53 79 92 79" fill="none" stroke="#000"/>
    <path d="m561 261c28 47 59 70 91 79" fill="none" stroke="#000"/>
    <path d="m562 261c36 39 67 61 90 79" fill="none" stroke="#000"/>
    <path d="m565 261c46 31 73 53 87 79" fill="none" stroke="#000"/>
    <path d="m569 261c52 24 75 46 83 79" fill="none" stroke="#000"/>
    <path d="m574 261c56 16 75 39 79 79" fill="none" stroke="#000"/>
    <path d="m583 261c57 8 72 32 75 79" fill="none" stroke="#000"/>
    <path d="m595 261c54 2 65 26 69 79" fill="none" stroke="#000"/>
    <g stroke="#000">
     <path d="m757 261c38 32 38 97 38 97" fill="none"/>
     <path d="m757 261c30 63 12 90 0 97" fill="none"/>
     <path d="m757 261c22 56 11 79-3 95" fill="none"/>
     <path d="m757 261c14 43 6 63-6 81" fill="none"/>
     <path d="m756 261c8 32 3 51-8 68" fill="none"/>
     <path d="m756 261c2 21 0 38-10 54" fill="none"/>
     <path d="m755 261c-2 14-5 28-12 40" fill="none"/>
     <path d="m755 261c-4 9-7 18-13 27" fill="none"/>
     <path d="m754 261c-20 54-53 79-92 79" fill="none"/>
     <path d="m753 261c-28 47-59 70-91 79" fill="none"/>
     <path d="m752 261c-36 39-67 61-90 79" fill="none"/>
     <path d="m749 261c-46 31-73 53-87 79" fill="none"/>
     <path d="m745 261c-52 24-75 46-83 79" fill="none"/>
     <path d="m740 261c-56 16-75 39-79 79" fill="none"/>
     <path d="m731 261c-57 8-72 32-75 79" fill="none"/>
     <path d="m719 261c-54 2-65 26-69 79" fill="none"/>
     <path d="m654 366c-18 69 16 117 76 117s94-48 76-117z" fill="#fce300"/>
     <path d="m654 366c-18 69 16 117 76 117" fill="none"/>
     <path d="m654 366c18 69-16 117-76 117" fill="none"/>
    </g>
    <g fill="#0035ad">
     <path d="m580 479c-7 0-14 2-19 6-12 8-19 21-19 36 0 25 21 46 47 46h164c26 0 47-21 47-46 0-15-7-28-19-36-5-4-12-6-19-6z"/>
     <path d="m580 479c-26 0-47 21-47 46" fill="none" stroke="#000"/>
     <path d="m806 479c26 0 47 21 47 46" fill="none" stroke="#000"/>
    </g>
    <path d="m654 366c-18 69 16 117 76 117s94-48 76-117z" stroke="#000"/>
    <path d="m582 366c49-1 72 16 93 42" fill="none" stroke="#000"/>
    <path d="m577 377c51 2 77 21 100 46" fill="none" stroke="#000"/>
    <path d="m582 366c-3 30 13 54 44 65" fill="none" stroke="#000"/>
    <path d="m576 378c-3 30 16 54 49 65" fill="none" stroke="#000"/>
    <g fill="#fce300" stroke="#000">
     <path d="m707 387 1 2c-39 12-50-2-61-12-11-9-11-20-2-26l2 1c10 7 24 23 60 35z"/>
     <path d="m707 387-2-1c1-15-12-25-23-28l-2 1c11 4 21 14 27 28z"/>
    </g>
    <path d="m649 365c1 1 20 22 2 46-17 23-45 15-45 15" fill="none" stroke="#000"/>
    <path d="m605 425c-5-2-16-15-9-27 4-6 9-9 16-9" fill="none" stroke="#000"/>
    <g fill="#0035ad">
     <path d="m729 444c1-2 1-3 1-5 0-3-1-5-2-7l-1 1c1 2 2 4 2 6 0 2 0 3-1 4z" stroke="#000"/>
     <ellipse cx="617" cy="403" rx="1" ry="2" stroke="#fff"/>
     <path d="m617 400c-1 0-1 1-1 3 0 2 0 3 1 3" fill="none" stroke="#fff"/>
     <path d="m617 400s1 0 1-2c0-1-1-2-1-2" fill="none" stroke="#fff"/>
    </g>
    <path d="m654 366c-18 69 16 117 76 117s94-48 76-117z" fill="none" stroke="#000"/>
    <g fill="none" stroke="#000">
     <path d="m654 366c18 69-16 117-76 117"/>
     <path d="m654 366-13-17c-5-7-10-10-18-10-13 0-20 12-20 27s12 28 29 28h1c2 0 3-1 3-1" stroke-linecap="round"/>
     <path d="m730 482s-12 1-29 1h-1c-17 0-29-13-29-28s7-27 20-27c8 0 13 3 18 10l13 17" stroke-linecap="round"/>
     <path d="m578 483c-13-6-22-19-22-35" stroke-linecap="round"/>
     <path d="m806 483c13-6 22-19 22-35" stroke-linecap="round"/>
     <path d="m806 483c-2-3-5-6-9-8" stroke-linecap="round"/>
     <path d="m578 483c2-3 5-6 9-8" stroke-linecap="round"/>
     <path d="m587 475c-5 1-10 3-14 6" stroke-linecap="round"/>
     <path d="m797 475c5 1 10 3 14 6" stroke-linecap="round"/>
     <path d="m809 450c1-2 2-4 2-7" stroke-linecap="round"/>
     <path d="m575 450c-1-2-2-4-2-7" stroke-linecap="round"/>
     <path d="m573 443c-1-2-1-3-1-5" stroke-linecap="round"/>
     <path d="m811 443c1-2 1-3 1-5" stroke-linecap="round"/>
    </g>
    <path d="m536 633c-3-3-5-7-5-12h270c0 5-2 9-5 12-4 3-9 5-15 5h-230c-6 0-11-2-15-5z" fill="#00923f" stroke="#000"/>
    <g fill="#d11800">
     <path d="m562 479c-30 0-54 24-54 54v3h278v-3c0-30-24-54-54-54z"/>
     <path d="m562 479c-30 0-54 24-54 54" fill="none" stroke="#000"/>
     <path d="m822 479c30 0 54 24 54 54" fill="none" stroke="#000"/>
    </g>
    <g fill="#fff">
     <path d="m661 386c-5 1-11 0-16-1s-9-4-9-6c0-1 2-2 5-2s5 1 5 2c0 1 1 4 5 5z"/>
     <path d="m654 391c-1 0-2-1-2-2s1-2 2-2 2 1 2 2-1 2-2 2z"/>
    </g>
   </g>
  </g>
 </g>
</svg>
    