<svg viewBox="0 0 200 200" xmlns="http://www.w3.org/2000/svg">
  <defs>
    <filter id="glow" x="-40%" y="-40%" width="180%" height="180%">
      <feGaussianBlur stdDeviation="6" result="blur" />
      <feMerge><feMergeNode in="blur" /><feMergeNode in="SourceGraphic" /></feMerge>
    </filter>
    <filter id="softGlow" x="-20%" y="-20%" width="140%" height="140%">
      <feGaussianBlur stdDeviation="3" result="blur" />
      <feMerge><feMergeNode in="blur" /><feMergeNode in="SourceGraphic" /></feMerge>
    </filter>
    <linearGradient id="hexGrad" x1="0%" y1="0%" x2="0%" y2="100%">
      <stop offset="0%" stop-color="#34d399" />
      <stop offset="50%" stop-color="#10b981" />
      <stop offset="100%" stop-color="#0d9488" />
    </linearGradient>
    <linearGradient id="hexFill" x1="0%" y1="0%" x2="100%" y2="100%">
      <stop offset="0%" stop-color="#10b981" stop-opacity="0.1" />
      <stop offset="100%" stop-color="#0d9488" stop-opacity="0.02" />
    </linearGradient>
    <linearGradient id="iconGrad" x1="0%" y1="0%" x2="100%" y2="100%">
      <stop offset="0%" stop-color="#6ee7b7" />
      <stop offset="50%" stop-color="#34d399" />
      <stop offset="100%" stop-color="#0d9488" />
    </linearGradient>
    <radialGradient id="centerGlow" cx="50%" cy="50%" r="50%">
      <stop offset="0%" stop-color="#10b981" stop-opacity="0.15" />
      <stop offset="100%" stop-color="#030712" stop-opacity="0" />
    </radialGradient>
  </defs>
  <rect width="100%" height="100%" fill="#030712" rx="32" />
  <circle cx="100" cy="100" r="70" fill="url(#centerGlow)" />
  <polygon points="100,20 169.3,60 169.3,140 100,180 30.7,140 30.7,60" fill="none" stroke="url(#hexGrad)" stroke-width="0.8" opacity="0.3" filter="url(#glow)" />
  <polygon points="100,20 169.3,60 169.3,140 100,180 30.7,140 30.7,60" fill="url(#hexFill)" stroke="url(#hexGrad)" stroke-width="3" />
  <polygon points="100,28 163,64 163,136 100,172 37,136 37,64" fill="none" stroke="url(#hexGrad)" stroke-width="0.5" opacity="0.35" />
  <path d="M 140,58 L 85,100 L 140,142" fill="none" stroke="url(#iconGrad)" stroke-width="16" stroke-linecap="round" stroke-linejoin="round" filter="url(#softGlow)" />
  <circle cx="120" cy="80" r="10" fill="none" stroke="#FFFFFF" stroke-width="3.5" opacity="0.9" />
  <path d="M 108,105 C 108,97 132,97 132,105" fill="none" stroke="#FFFFFF" stroke-width="3.5" stroke-linecap="round" opacity="0.9" />
  <circle cx="148" cy="85" r="7" fill="none" stroke="#FFFFFF" stroke-width="3" opacity="0.6" />
  <path d="M 139,104 C 139,97 157,97 157,104" fill="none" stroke="#FFFFFF" stroke-width="2.5" stroke-linecap="round" opacity="0.6" />
  <circle cx="85" cy="100" r="13" fill="#FFFFFF" opacity="0.12" />
  <circle cx="85" cy="100" r="9" fill="#FFFFFF" filter="url(#softGlow)" />
  <circle cx="85" cy="100" r="4.5" fill="#34d399" filter="url(#softGlow)" />
</svg>