<svg viewBox="0 0 200 200" xmlns="http://www.w3.org/2000/svg">
  <defs>
    <filter id="glow" x="-20%" y="-20%" width="140%" height="140%">
      <feGaussianBlur stdDeviation="6" result="blur" />
      <feMerge>
        <feMergeNode in="blur" />
        <feMergeNode in="SourceGraphic" />
      </feMerge>
    </filter>
    <linearGradient id="hexGrad" x1="0%" y1="0%" x2="0%" y2="100%">
      <stop offset="0%" stop-color="#d946ef" />
      <stop offset="100%" stop-color="#c026d3" />
    </linearGradient>
    <linearGradient id="iconGrad" x1="0%" y1="0%" x2="100%" y2="100%">
      <stop offset="0%" stop-color="#c026d3" />
      <stop offset="100%" stop-color="#d946ef" />
    </linearGradient>
  </defs>
  <rect width="100%" height="100%" fill="#030712" rx="32" />
  <polygon points="100,20 169.3,60 169.3,140 100,180 30.7,140 30.7,60" fill="#080e1a" stroke="url(#hexGrad)" stroke-width="4" filter="url(#glow)" />
  <path d="M 125,65 L 85,100 L 125,135" fill="none" stroke="url(#iconGrad)" stroke-width="14" stroke-linecap="round" stroke-linejoin="round" />
  <path d="M 138,82 A 20,20 0 0 1 138,118" fill="none" stroke="#FFFFFF" stroke-width="4" stroke-linecap="round" opacity="0.8" />
  <path d="M 148,72 A 35,35 0 0 1 148,128" fill="none" stroke="#FFFFFF" stroke-width="4" stroke-linecap="round" opacity="0.8" />
  <path d="M 70,90 L 85,100 L 70,110 Z" fill="url(#iconGrad)" />
  <circle cx="85" cy="100" r="10" fill="#FFFFFF" />
  <circle cx="85" cy="100" r="5" fill="#d946ef" />
</svg>