<svg viewBox="0 0 200 200" xmlns="http://www.w3.org/2000/svg">
  <defs>
    <filter id="glow" x="-40%" y="-40%" width="180%" height="180%">
      <feGaussianBlur stdDeviation="6" result="blur" />
      <feMerge><feMergeNode in="blur" /><feMergeNode in="SourceGraphic" /></feMerge>
    </filter>
    <filter id="softGlow" x="-20%" y="-20%" width="140%" height="140%">
      <feGaussianBlur stdDeviation="3" result="blur" />
      <feMerge><feMergeNode in="blur" /><feMergeNode in="SourceGraphic" /></feMerge>
    </filter>
    <linearGradient id="hexGrad" x1="0%" y1="0%" x2="0%" y2="100%">
      <stop offset="0%" stop-color="#fbbf24" />
      <stop offset="50%" stop-color="#f59e0b" />
      <stop offset="100%" stop-color="#d97706" />
    </linearGradient>
    <linearGradient id="hexFill" x1="0%" y1="0%" x2="100%" y2="100%">
      <stop offset="0%" stop-color="#f59e0b" stop-opacity="0.1" />
      <stop offset="100%" stop-color="#d97706" stop-opacity="0.02" />
    </linearGradient>
    <linearGradient id="iconGrad" x1="0%" y1="0%" x2="100%" y2="100%">
      <stop offset="0%" stop-color="#fde68a" />
      <stop offset="50%" stop-color="#fbbf24" />
      <stop offset="100%" stop-color="#f59e0b" />
    </linearGradient>
    <radialGradient id="centerGlow" cx="50%" cy="50%" r="50%">
      <stop offset="0%" stop-color="#f59e0b" stop-opacity="0.15" />
      <stop offset="100%" stop-color="#030712" stop-opacity="0" />
    </radialGradient>
    <linearGradient id="glassGrad" x1="0%" y1="0%" x2="100%" y2="100%">
      <stop offset="0%" stop-color="#ffffff" stop-opacity="0.15" />
      <stop offset="40%" stop-color="#ffffff" stop-opacity="0.01" />
      <stop offset="40.1%" stop-color="#ffffff" stop-opacity="0" />
      <stop offset="100%" stop-color="#ffffff" stop-opacity="0" />
    </linearGradient>
  </defs>
  <rect width="100%" height="100%" fill="#030712" rx="32" />
  <circle cx="100" cy="100" r="70" fill="url(#centerGlow)" />
  <polygon points="100,20 169.3,60 169.3,140 100,180 30.7,140 30.7,60" fill="none" stroke="url(#hexGrad)" stroke-width="0.8" opacity="0.3" filter="url(#glow)" />
  <polygon points="100,20 169.3,60 169.3,140 100,180 30.7,140 30.7,60" fill="url(#hexFill)" stroke="url(#hexGrad)" stroke-width="3" />
  <polygon points="100,20 169.3,60 169.3,140 100,180 30.7,140 30.7,60" fill="url(#glassGrad)" />
  <polygon points="100,28 163,64 163,136 100,172 37,136 37,64" fill="none" stroke="url(#hexGrad)" stroke-width="0.5" opacity="0.35" />
  <path d="M 70,70 L 100,60 L 130,70 V 110 C 130,130 100,150 100,150 C 100,150 70,130 70,110 Z" fill="none" stroke="url(#iconGrad)" stroke-width="14" stroke-linecap="round" stroke-linejoin="round" filter="url(#softGlow)" />
</svg>
